# xmcd
#
# Track frame offsets: 
#        150
#        15591
#        29400
#        50479
#        74461
#        90939
#        109198
#        132896
#        151776
#        166161
#        184562
#
# Disc length: 2679 seconds
#
# Revision: 0
# Processed by: cddbd v1.5.2PL0 Copyright (c) Steve Scherf et al.
# Submitted via: ExactAudioCopy v0.95b4
#
DISCID=7f0a750b
DTITLE=Юрий Пашалы - Для влюблённых в аккордеон 
DYEAR=2007
DGENRE=Acoustic
TTITLE0=Брызги шампанского (А.М. Люкери)
TTITLE1=Домино (Плане-Ферари)
TTITLE2=Тико-тико (З. Эбрю)
TTITLE3=Танго любви (А. Пьяццола)
TTITLE4=Вальс из к/ф "Берегись автомоюбиля" (А. Петров)
TTITLE5=Цветущий май (А. Полонский)
TTITLE6=Мелодия из к/ф "Цыган" (В. Зубков)
TTITLE7=Свет и тени (П. Пиццигони)
TTITLE8=Рио-Рита (Е. Сантегини)
TTITLE9=Вальс из к/ф "Мой ласковый и нежный зверь" (Е. Дога)
TTITLE10=Карусель (Ю. Шахнов)
EXTD=
EXTT0=
EXTT1=
EXTT2=
EXTT3=
EXTT4=
EXTT5=
EXTT6=
EXTT7=
EXTT8=
EXTT9=
EXTT10=
PLAYORDER=
